<svg viewBox="0 0 40 40" fill="#ffffff" xmlns="http://www.w3.org/2000/svg" id="Phone-Find-Line--Streamline-Remix" height="40" width="40">
  <desc>
    Phone Find Line Streamline Icon: https://streamlinehq.com
  </desc>
  <path d="M30 3.3333333333333335c0.9205000000000001 0 1.6666666666666667 0.7462000000000001 1.6666666666666667 1.6666666666666667v13.333333333333334h-3.3333333333333335V6.666666666666667H11.666666666666668v26.666666666666668h6.666666666666667v3.3333333333333335H10c-0.9204666666666667 0 -1.6666666666666667 -0.7461666666666666 -1.6666666666666667 -1.6666666666666667V5c0 -0.9204666666666667 0.7462000000000001 -1.6666666666666667 1.6666666666666667 -1.6666666666666667h20Zm-5 16.666666666666668c3.681833333333333 0 6.666666666666667 2.9848333333333334 6.666666666666667 6.666666666666667 0 1.2365000000000002 -0.3366666666666667 2.3943333333333334 -0.9233333333333335 3.387l3.6848333333333336 3.684 -2.3571666666666666 2.3571666666666666 -3.6855 -3.6838333333333337C27.39316666666667 32.99700000000001 26.235833333333336 33.333333333333336 25 33.333333333333336c-3.681833333333333 0 -6.666666666666667 -2.9848333333333334 -6.666666666666667 -6.666666666666667 0 -3.681833333333333 2.9848333333333334 -6.666666666666667 6.666666666666667 -6.666666666666667Zm0 3.3333333333333335c-1.8410000000000002 0 -3.3333333333333335 1.4923333333333333 -3.3333333333333335 3.3333333333333335s1.4923333333333333 3.3333333333333335 3.3333333333333335 3.3333333333333335 3.3333333333333335 -1.4923333333333333 3.3333333333333335 -3.3333333333333335 -1.4923333333333333 -3.3333333333333335 -3.3333333333333335 -3.3333333333333335Z" stroke-width="1.6667"></path>
</svg>