<svg viewBox="0 0 40 40" fill="#ffffff" xmlns="http://www.w3.org/2000/svg" id="Eye-Line--Streamline-Remix" height="40" width="40">
  <desc>
    Eye Line Streamline Icon: https://streamlinehq.com
  </desc>
  <path d="M20.0005 5c8.986833333333333 0 16.4635 6.466266666666667 18.031000000000002 15 -1.5675000000000001 8.533666666666667 -9.044166666666667 15 -18.031000000000002 15 -8.986966666666667 0 -16.463583333333332 -6.466333333333333 -18.0311 -15 1.5675166666666667 -8.533733333333334 9.044133333333333 -15 18.0311 -15Zm0 26.666666666666668c7.059333333333333 0 13.100000000000001 -4.913333333333333 14.629000000000001 -11.666666666666668 -1.5290000000000001 -6.753283333333333 -7.569666666666667 -11.666666666666668 -14.629000000000001 -11.666666666666668 -7.0595 0 -13.100133333333334 4.913383333333334 -14.629200000000003 11.666666666666668 1.5290666666666668 6.753333333333333 7.569700000000001 11.666666666666668 14.629200000000003 11.666666666666668Zm0 -4.166666666666667c-4.142200000000001 0 -7.500066666666667 -3.3578333333333332 -7.500066666666667 -7.5 0 -4.142133333333334 3.3578666666666668 -7.5 7.500066666666667 -7.5 4.142 0 7.5 3.3578666666666668 7.5 7.5 0 4.142166666666667 -3.3580000000000005 7.5 -7.5 7.5Zm0 -3.3333333333333335c2.301166666666667 0 4.166666666666667 -1.8655 4.166666666666667 -4.166666666666667s-1.8655 -4.166666666666667 -4.166666666666667 -4.166666666666667 -4.166733333333333 1.8655 -4.166733333333333 4.166666666666667 1.8655666666666668 4.166666666666667 4.166733333333333 4.166666666666667Z" stroke-width="1.6667"></path>
</svg>