<svg viewBox="0 0 40 40" fill="#ffffff" xmlns="http://www.w3.org/2000/svg" id="Survey-Line--Streamline-Remix" height="40" width="40">
  <desc>
    Survey Line Streamline Icon: https://streamlinehq.com
  </desc>
  <path d="M28.333333333333336 3.3333333333333335v3.3333333333333335h5.011c0.9143333333333333 0 1.6556666666666666 0.7415833333333334 1.6556666666666666 1.6556666666666666v26.68866666666667c0 0.9143333333333333 -0.7415 1.6556666666666666 -1.6556666666666666 1.6556666666666666H6.655666666666667C5.741266666666667 36.66666666666667 5 35.92516666666667 5 35.011V8.322333333333335C5 7.407933333333333 5.741583333333334 6.666666666666667 6.655666666666667 6.666666666666667H11.666666666666668V3.3333333333333335h16.666666666666668ZM11.666666666666668 10H8.333333333333334v23.333333333333336h23.333333333333336V10h-3.3333333333333335v3.3333333333333335H11.666666666666668V10Zm3.3333333333333335 16.666666666666668v3.3333333333333335H11.666666666666668v-3.3333333333333335h3.3333333333333335Zm0 -5v3.3333333333333335H11.666666666666668v-3.3333333333333335h3.3333333333333335Zm0 -5v3.3333333333333335H11.666666666666668v-3.3333333333333335h3.3333333333333335Zm10 -10H15v3.3333333333333335h10V6.666666666666667Z" stroke-width="1.6667"></path>
</svg>